{
  "accessors": [
    {
      "bufferView": 2,
      "componentType": 5126,
      "count": 8732,
      "max": [
        0.43449699878692627,
        0.9856709837913513,
        0.3842819929122925
      ],
      "min": [
        -0.4382990002632141,
        -0.14499400556087494,
        -0.3853920102119446
      ],
      "type": "VEC3"
    },
    {
      "bufferView": 2,
      "byteOffset": 104784,
      "componentType": 5126,
      "count": 8732,
      "max": [
        1.0,
        1.0,
        0.9999207854270935
      ],
      "min": [
        -1.0,
        -0.9997058510780334,
        -0.9999648928642273
      ],
      "type": "VEC3"
    },
    {
      "bufferView": 3,
      "componentType": 5126,
      "count": 8732,
      "max": [
        1.0,
        0.9999449253082275,
        0.9999649524688721,
        1.0
      ],
      "min": [
        -1.0,
        -0.9994280934333801,
        -0.9999060034751892,
        -1.0
      ],
      "type": "VEC4"
    },
    {
      "bufferView": 1,
      "componentType": 5126,
      "count": 8732,
      "max": [
        1.0,
        0.9990649819374084
      ],
      "min": [
        0.0,
        0.0
      ],
      "type": "VEC2"
    },
    {
      "bufferView": 0,
      "componentType": 5125,
      "count": 48324,
      "type": "SCALAR"
    },
    {
      "bufferView": 2,
      "byteOffset": 209568,
      "componentType": 5126,
      "count": 23127,
      "max": [
        1.0,
        -0.00463688001036644,
        1.0
      ],
      "min": [
        -1.0,
        -0.9856709837913513,
        -1.0
      ],
      "type": "VEC3"
    },
    {
      "bufferView": 2,
      "byteOffset": 487092,
      "componentType": 5126,
      "count": 23127,
      "max": [
        0.9999486207962036,
        1.0,
        0.9999984502792358
      ],
      "min": [
        -0.9999486207962036,
        -0.9999704957008362,
        -0.9999854564666748
      ],
      "type": "VEC3"
    },
    {
      "bufferView": 3,
      "byteOffset": 139712,
      "componentType": 5126,
      "count": 23127,
      "max": [
        0.9999673366546631,
        0.9999691843986511,
        0.9999352097511292,
        1.0
      ],
      "min": [
        -0.9999228119850159,
        -0.9999237060546875,
        -0.9999228119850159,
        -1.0
      ],
      "type": "VEC4"
    },
    {
      "bufferView": 1,
      "byteOffset": 69856,
      "componentType": 5126,
      "count": 23127,
      "max": [
        0.9982159733772278,
        0.9976209998130798
      ],
      "min": [
        0.0028135799802839756,
        0.00844397023320198
      ],
      "type": "VEC2"
    },
    {
      "bufferView": 0,
      "byteOffset": 193296,
      "componentType": 5125,
      "count": 120309,
      "type": "SCALAR"
    }
  ],
  "asset": {
    "extras": {
      "author": "Enrico Labarile (https://sketchfab.com/enrico.labarile)",
      "license": "CC-BY-4.0 (http://creativecommons.org/licenses/by/4.0/)",
      "source": "https://sketchfab.com/3d-models/hollow-knight-statue-test-7fb678c884f7491c96824f9ac45dea58",
      "title": "Hollow Knight_Statue Test"
    },
    "generator": "Sketchfab-12.65.0",
    "version": "2.0"
  },
  "bufferViews": [
    {
      "buffer": 0,
      "byteLength": 674532,
      "name": "floatBufferViews",
      "target": 34963
    },
    {
      "buffer": 0,
      "byteLength": 254872,
      "byteOffset": 674532,
      "byteStride": 8,
      "name": "floatBufferViews",
      "target": 34962
    },
    {
      "buffer": 0,
      "byteLength": 764616,
      "byteOffset": 929404,
      "byteStride": 12,
      "name": "floatBufferViews",
      "target": 34962
    },
    {
      "buffer": 0,
      "byteLength": 509744,
      "byteOffset": 1694020,
      "byteStride": 16,
      "name": "floatBufferViews",
      "target": 34962
    }
  ],
  "buffers": [
    {
      "byteLength": 2203764,
      "uri": "scene.bin"
    }
  ],
  "images": [
    {
      "uri": "textures/Stuate_A_MAT_baseColor.jpeg"
    },
    {
      "uri": "textures/Stuate_A_MAT_metallicRoughness.png"
    },
    {
      "uri": "textures/Stuate_A_MAT_normal.png"
    },
    {
      "uri": "textures/Statue_B_MAT_baseColor.jpeg"
    },
    {
      "uri": "textures/Statue_B_MAT_metallicRoughness.png"
    },
    {
      "uri": "textures/Statue_B_MAT_normal.png"
    }
  ],
  "materials": [
    {
      "doubleSided": true,
      "name": "Stuate_A_MAT",
      "normalTexture": {
        "index": 2
      },
      "occlusionTexture": {
        "index": 1
      },
      "pbrMetallicRoughness": {
        "baseColorTexture": {
          "index": 0
        },
        "metallicRoughnessTexture": {
          "index": 1
        }
      }
    },
    {
      "doubleSided": true,
      "name": "Statue_B_MAT",
      "normalTexture": {
        "index": 5
      },
      "occlusionTexture": {
        "index": 4
      },
      "pbrMetallicRoughness": {
        "baseColorTexture": {
          "index": 3
        },
        "metallicRoughnessTexture": {
          "index": 4
        }
      }
    }
  ],
  "meshes": [
    {
      "name": "defaultMaterial",
      "primitives": [
        {
          "attributes": {
            "NORMAL": 1,
            "POSITION": 0,
            "TANGENT": 2,
            "TEXCOORD_0": 3
          },
          "indices": 4,
          "material": 1,
          "mode": 4
        }
      ]
    },
    {
      "name": "defaultMaterial",
      "primitives": [
        {
          "attributes": {
            "NORMAL": 6,
            "POSITION": 5,
            "TANGENT": 7,
            "TEXCOORD_0": 8
          },
          "indices": 9,
          "material": 0,
          "mode": 4
        }
      ]
    }
  ],
  "nodes": [
    {
      "children": [
        1
      ],
      "matrix": [
        1.0,
        0.0,
        0.0,
        0.0,
        0.0,
        2.220446049250313e-16,
        -1.0,
        0.0,
        0.0,
        1.0,
        2.220446049250313e-16,
        0.0,
        0.0,
        0.0,
        0.0,
        1.0
      ],
      "name": "Sketchfab_model"
    },
    {
      "children": [
        2,
        4
      ],
      "matrix": [
        1.0,
        0.0,
        0.0,
        0.0,
        0.0,
        -4.371139006309477e-08,
        0.999999999999999,
        0.0,
        0.0,
        -0.999999999999999,
        -4.371139006309477e-08,
        0.0,
        0.0,
        0.0,
        0.0,
        1.0
      ],
      "name": "Collada visual scene group"
    },
    {
      "children": [
        3
      ],
      "name": "polySurface254"
    },
    {
      "mesh": 0,
      "name": "defaultMaterial"
    },
    {
      "children": [
        5
      ],
      "name": "polySurface254"
    },
    {
      "mesh": 1,
      "name": "defaultMaterial"
    }
  ],
  "samplers": [
    {
      "magFilter": 9729,
      "minFilter": 9987,
      "wrapS": 10497,
      "wrapT": 10497
    }
  ],
  "scene": 0,
  "scenes": [
    {
      "name": "Sketchfab_Scene",
      "nodes": [
        0
      ]
    }
  ],
  "textures": [
    {
      "sampler": 0,
      "source": 0
    },
    {
      "sampler": 0,
      "source": 1
    },
    {
      "sampler": 0,
      "source": 2
    },
    {
      "sampler": 0,
      "source": 3
    },
    {
      "sampler": 0,
      "source": 4
    },
    {
      "sampler": 0,
      "source": 5
    }
  ]
}
