{
  "accessors": [
    {
      "bufferView": 2,
      "componentType": 5126,
      "count": 204,
      "max": [
        23.557350158691406,
        25.200002670288086,
        5.0
      ],
      "min": [
        -23.471248626708984,
        -25.07147789001465,
        -19.89142608642578
      ],
      "type": "VEC3"
    },
    {
      "bufferView": 2,
      "byteOffset": 2448,
      "componentType": 5126,
      "count": 204,
      "max": [
        1.0,
        1.0,
        1.0
      ],
      "min": [
        -1.0,
        -1.0,
        -1.0
      ],
      "type": "VEC3"
    },
    {
      "bufferView": 1,
      "componentType": 5126,
      "count": 204,
      "max": [
        0.988685667514801,
        0.981238603591919
      ],
      "min": [
        0.02084089256823063,
        0.008385410532355309
      ],
      "type": "VEC2"
    },
    {
      "bufferView": 1,
      "byteOffset": 1632,
      "componentType": 5126,
      "count": 204,
      "max": [
        0.988685667514801,
        0.981238603591919
      ],
      "min": [
        0.02084089256823063,
        0.008385410532355309
      ],
      "type": "VEC2"
    },
    {
      "bufferView": 0,
      "componentType": 5125,
      "count": 240,
      "type": "SCALAR"
    },
    {
      "bufferView": 2,
      "byteOffset": 4896,
      "componentType": 5126,
      "count": 204,
      "max": [
        23.557350158691406,
        25.200002670288086,
        5.0
      ],
      "min": [
        -23.471248626708984,
        -25.07147789001465,
        -19.89142608642578
      ],
      "type": "VEC3"
    },
    {
      "bufferView": 2,
      "byteOffset": 7344,
      "componentType": 5126,
      "count": 204,
      "max": [
        1.0,
        1.0,
        1.0
      ],
      "min": [
        -1.0,
        -1.0,
        -1.0
      ],
      "type": "VEC3"
    },
    {
      "bufferView": 1,
      "byteOffset": 3264,
      "componentType": 5126,
      "count": 204,
      "max": [
        0.988685667514801,
        0.981238603591919
      ],
      "min": [
        0.02084089256823063,
        0.008385410532355309
      ],
      "type": "VEC2"
    },
    {
      "bufferView": 1,
      "byteOffset": 4896,
      "componentType": 5126,
      "count": 204,
      "max": [
        0.988685667514801,
        0.981238603591919
      ],
      "min": [
        0.02084089256823063,
        0.008385410532355309
      ],
      "type": "VEC2"
    },
    {
      "bufferView": 0,
      "byteOffset": 960,
      "componentType": 5125,
      "count": 240,
      "type": "SCALAR"
    },
    {
      "bufferView": 2,
      "byteOffset": 9792,
      "componentType": 5126,
      "count": 204,
      "max": [
        23.557350158691406,
        25.200002670288086,
        5.0
      ],
      "min": [
        -23.471248626708984,
        -25.07147789001465,
        -19.89142608642578
      ],
      "type": "VEC3"
    },
    {
      "bufferView": 2,
      "byteOffset": 12240,
      "componentType": 5126,
      "count": 204,
      "max": [
        1.0,
        1.0,
        1.0
      ],
      "min": [
        -1.0,
        -1.0,
        -1.0
      ],
      "type": "VEC3"
    },
    {
      "bufferView": 1,
      "byteOffset": 6528,
      "componentType": 5126,
      "count": 204,
      "max": [
        0.988685667514801,
        0.981238603591919
      ],
      "min": [
        0.02084089256823063,
        0.008385410532355309
      ],
      "type": "VEC2"
    },
    {
      "bufferView": 1,
      "byteOffset": 8160,
      "componentType": 5126,
      "count": 204,
      "max": [
        0.988685667514801,
        0.981238603591919
      ],
      "min": [
        0.02084089256823063,
        0.008385410532355309
      ],
      "type": "VEC2"
    },
    {
      "bufferView": 0,
      "byteOffset": 1920,
      "componentType": 5125,
      "count": 240,
      "type": "SCALAR"
    },
    {
      "bufferView": 2,
      "byteOffset": 14688,
      "componentType": 5126,
      "count": 204,
      "max": [
        23.557350158691406,
        25.200002670288086,
        5.0
      ],
      "min": [
        -23.471248626708984,
        -25.07147789001465,
        -19.89142608642578
      ],
      "type": "VEC3"
    },
    {
      "bufferView": 2,
      "byteOffset": 17136,
      "componentType": 5126,
      "count": 204,
      "max": [
        1.0,
        1.0,
        1.0
      ],
      "min": [
        -1.0,
        -1.0,
        -1.0
      ],
      "type": "VEC3"
    },
    {
      "bufferView": 1,
      "byteOffset": 9792,
      "componentType": 5126,
      "count": 204,
      "max": [
        0.988685667514801,
        0.981238603591919
      ],
      "min": [
        0.02084089256823063,
        0.008385410532355309
      ],
      "type": "VEC2"
    },
    {
      "bufferView": 1,
      "byteOffset": 11424,
      "componentType": 5126,
      "count": 204,
      "max": [
        0.988685667514801,
        0.981238603591919
      ],
      "min": [
        0.02084089256823063,
        0.008385410532355309
      ],
      "type": "VEC2"
    },
    {
      "bufferView": 0,
      "byteOffset": 2880,
      "componentType": 5125,
      "count": 240,
      "type": "SCALAR"
    },
    {
      "bufferView": 2,
      "byteOffset": 19584,
      "componentType": 5126,
      "count": 204,
      "max": [
        23.557350158691406,
        25.200002670288086,
        5.0
      ],
      "min": [
        -23.471248626708984,
        -25.07147789001465,
        -19.89142608642578
      ],
      "type": "VEC3"
    },
    {
      "bufferView": 2,
      "byteOffset": 22032,
      "componentType": 5126,
      "count": 204,
      "max": [
        1.0,
        1.0,
        1.0
      ],
      "min": [
        -1.0,
        -1.0,
        -1.0
      ],
      "type": "VEC3"
    },
    {
      "bufferView": 1,
      "byteOffset": 13056,
      "componentType": 5126,
      "count": 204,
      "max": [
        0.988685667514801,
        0.981238603591919
      ],
      "min": [
        0.02084089256823063,
        0.008385410532355309
      ],
      "type": "VEC2"
    },
    {
      "bufferView": 1,
      "byteOffset": 14688,
      "componentType": 5126,
      "count": 204,
      "max": [
        0.988685667514801,
        0.981238603591919
      ],
      "min": [
        0.02084089256823063,
        0.008385410532355309
      ],
      "type": "VEC2"
    },
    {
      "bufferView": 0,
      "byteOffset": 3840,
      "componentType": 5125,
      "count": 240,
      "type": "SCALAR"
    },
    {
      "bufferView": 2,
      "byteOffset": 24480,
      "componentType": 5126,
      "count": 204,
      "max": [
        23.557350158691406,
        25.200002670288086,
        5.0
      ],
      "min": [
        -23.471248626708984,
        -25.07147789001465,
        -19.89142608642578
      ],
      "type": "VEC3"
    },
    {
      "bufferView": 2,
      "byteOffset": 26928,
      "componentType": 5126,
      "count": 204,
      "max": [
        1.0,
        1.0,
        1.0
      ],
      "min": [
        -1.0,
        -1.0,
        -1.0
      ],
      "type": "VEC3"
    },
    {
      "bufferView": 1,
      "byteOffset": 16320,
      "componentType": 5126,
      "count": 204,
      "max": [
        0.988685667514801,
        0.981238603591919
      ],
      "min": [
        0.02084089256823063,
        0.008385410532355309
      ],
      "type": "VEC2"
    },
    {
      "bufferView": 1,
      "byteOffset": 17952,
      "componentType": 5126,
      "count": 204,
      "max": [
        0.988685667514801,
        0.981238603591919
      ],
      "min": [
        0.02084089256823063,
        0.008385410532355309
      ],
      "type": "VEC2"
    },
    {
      "bufferView": 0,
      "byteOffset": 4800,
      "componentType": 5125,
      "count": 240,
      "type": "SCALAR"
    },
    {
      "bufferView": 2,
      "byteOffset": 29376,
      "componentType": 5126,
      "count": 204,
      "max": [
        23.557350158691406,
        25.200002670288086,
        5.0
      ],
      "min": [
        -23.471248626708984,
        -25.07147789001465,
        -19.89142608642578
      ],
      "type": "VEC3"
    },
    {
      "bufferView": 2,
      "byteOffset": 31824,
      "componentType": 5126,
      "count": 204,
      "max": [
        1.0,
        1.0,
        1.0
      ],
      "min": [
        -1.0,
        -1.0,
        -1.0
      ],
      "type": "VEC3"
    },
    {
      "bufferView": 1,
      "byteOffset": 19584,
      "componentType": 5126,
      "count": 204,
      "max": [
        0.988685667514801,
        0.981238603591919
      ],
      "min": [
        0.02084089256823063,
        0.008385410532355309
      ],
      "type": "VEC2"
    },
    {
      "bufferView": 1,
      "byteOffset": 21216,
      "componentType": 5126,
      "count": 204,
      "max": [
        0.988685667514801,
        0.981238603591919
      ],
      "min": [
        0.02084089256823063,
        0.008385410532355309
      ],
      "type": "VEC2"
    },
    {
      "bufferView": 0,
      "byteOffset": 5760,
      "componentType": 5125,
      "count": 240,
      "type": "SCALAR"
    },
    {
      "bufferView": 2,
      "byteOffset": 34272,
      "componentType": 5126,
      "count": 204,
      "max": [
        23.557350158691406,
        25.200002670288086,
        5.0
      ],
      "min": [
        -23.471248626708984,
        -25.07147789001465,
        -19.89142608642578
      ],
      "type": "VEC3"
    },
    {
      "bufferView": 2,
      "byteOffset": 36720,
      "componentType": 5126,
      "count": 204,
      "max": [
        1.0,
        1.0,
        1.0
      ],
      "min": [
        -1.0,
        -1.0,
        -1.0
      ],
      "type": "VEC3"
    },
    {
      "bufferView": 1,
      "byteOffset": 22848,
      "componentType": 5126,
      "count": 204,
      "max": [
        0.988685667514801,
        0.981238603591919
      ],
      "min": [
        0.02084089256823063,
        0.008385410532355309
      ],
      "type": "VEC2"
    },
    {
      "bufferView": 1,
      "byteOffset": 24480,
      "componentType": 5126,
      "count": 204,
      "max": [
        0.988685667514801,
        0.981238603591919
      ],
      "min": [
        0.02084089256823063,
        0.008385410532355309
      ],
      "type": "VEC2"
    },
    {
      "bufferView": 0,
      "byteOffset": 6720,
      "componentType": 5125,
      "count": 240,
      "type": "SCALAR"
    }
  ],
  "asset": {
    "extras": {
      "author": "Brenwltrs (https://sketchfab.com/Brenwltrs)",
      "license": "CC-BY-4.0 (http://creativecommons.org/licenses/by/4.0/)",
      "source": "https://sketchfab.com/3d-models/pile-of-books-822e51eef741496d926bea1fbc32db7b",
      "title": "Pile of books"
    },
    "generator": "Sketchfab-12.66.0",
    "version": "2.0"
  },
  "bufferViews": [
    {
      "buffer": 0,
      "byteLength": 7680,
      "name": "floatBufferViews",
      "target": 34963
    },
    {
      "buffer": 0,
      "byteLength": 26112,
      "byteOffset": 7680,
      "byteStride": 8,
      "name": "floatBufferViews",
      "target": 34962
    },
    {
      "buffer": 0,
      "byteLength": 39168,
      "byteOffset": 33792,
      "byteStride": 12,
      "name": "floatBufferViews",
      "target": 34962
    }
  ],
  "buffers": [
    {
      "byteLength": 72960,
      "uri": "scene.bin"
    }
  ],
  "images": [
    {
      "uri": "textures/ORANGE_baseColor.jpeg"
    },
    {
      "uri": "textures/material_baseColor.jpeg"
    },
    {
      "uri": "textures/blue_baseColor.jpeg"
    },
    {
      "uri": "textures/black_baseColor.jpeg"
    },
    {
      "uri": "textures/green_baseColor.jpeg"
    },
    {
      "uri": "textures/purple_baseColor.jpeg"
    },
    {
      "uri": "textures/pink_baseColor.jpeg"
    },
    {
      "uri": "textures/Cyan_baseColor.jpeg"
    }
  ],
  "materials": [
    {
      "doubleSided": true,
      "name": "ORANGE",
      "pbrMetallicRoughness": {
        "baseColorTexture": {
          "index": 0
        },
        "metallicFactor": 0.0,
        "roughnessFactor": 0.6
      }
    },
    {
      "doubleSided": true,
      "name": "material",
      "pbrMetallicRoughness": {
        "baseColorTexture": {
          "index": 1
        },
        "metallicFactor": 0.0,
        "roughnessFactor": 0.6
      }
    },
    {
      "doubleSided": true,
      "name": "blue",
      "pbrMetallicRoughness": {
        "baseColorTexture": {
          "index": 2
        },
        "metallicFactor": 0.0,
        "roughnessFactor": 0.6
      }
    },
    {
      "doubleSided": true,
      "name": "black",
      "pbrMetallicRoughness": {
        "baseColorTexture": {
          "index": 3
        },
        "metallicFactor": 0.0,
        "roughnessFactor": 0.6
      }
    },
    {
      "doubleSided": true,
      "name": "green",
      "pbrMetallicRoughness": {
        "baseColorTexture": {
          "index": 4
        },
        "metallicFactor": 0.0,
        "roughnessFactor": 0.6
      }
    },
    {
      "doubleSided": true,
      "name": "purple",
      "pbrMetallicRoughness": {
        "baseColorTexture": {
          "index": 5
        },
        "metallicFactor": 0.0,
        "roughnessFactor": 0.6
      }
    },
    {
      "doubleSided": true,
      "name": "pink",
      "pbrMetallicRoughness": {
        "baseColorTexture": {
          "index": 6
        },
        "metallicFactor": 0.0,
        "roughnessFactor": 0.6
      }
    },
    {
      "doubleSided": true,
      "name": "Cyan",
      "pbrMetallicRoughness": {
        "baseColorTexture": {
          "index": 7
        },
        "metallicFactor": 0.0,
        "roughnessFactor": 0.6
      }
    }
  ],
  "meshes": [
    {
      "name": "Box002_ORANGE_0",
      "primitives": [
        {
          "attributes": {
            "NORMAL": 1,
            "POSITION": 0,
            "TEXCOORD_0": 2,
            "TEXCOORD_1": 3
          },
          "indices": 4,
          "material": 0,
          "mode": 4
        }
      ]
    },
    {
      "name": "Box003_RED_0",
      "primitives": [
        {
          "attributes": {
            "NORMAL": 6,
            "POSITION": 5,
            "TEXCOORD_0": 7,
            "TEXCOORD_1": 8
          },
          "indices": 9,
          "material": 1,
          "mode": 4
        }
      ]
    },
    {
      "name": "Box004_blue_0",
      "primitives": [
        {
          "attributes": {
            "NORMAL": 11,
            "POSITION": 10,
            "TEXCOORD_0": 12,
            "TEXCOORD_1": 13
          },
          "indices": 14,
          "material": 2,
          "mode": 4
        }
      ]
    },
    {
      "name": "Box005_black_0",
      "primitives": [
        {
          "attributes": {
            "NORMAL": 16,
            "POSITION": 15,
            "TEXCOORD_0": 17,
            "TEXCOORD_1": 18
          },
          "indices": 19,
          "material": 3,
          "mode": 4
        }
      ]
    },
    {
      "name": "Box006_green_0",
      "primitives": [
        {
          "attributes": {
            "NORMAL": 21,
            "POSITION": 20,
            "TEXCOORD_0": 22,
            "TEXCOORD_1": 23
          },
          "indices": 24,
          "material": 4,
          "mode": 4
        }
      ]
    },
    {
      "name": "Box007_purple_0",
      "primitives": [
        {
          "attributes": {
            "NORMAL": 26,
            "POSITION": 25,
            "TEXCOORD_0": 27,
            "TEXCOORD_1": 28
          },
          "indices": 29,
          "material": 5,
          "mode": 4
        }
      ]
    },
    {
      "name": "Box008_pink_0",
      "primitives": [
        {
          "attributes": {
            "NORMAL": 31,
            "POSITION": 30,
            "TEXCOORD_0": 32,
            "TEXCOORD_1": 33
          },
          "indices": 34,
          "material": 6,
          "mode": 4
        }
      ]
    },
    {
      "name": "Box009_Cyan_0",
      "primitives": [
        {
          "attributes": {
            "NORMAL": 36,
            "POSITION": 35,
            "TEXCOORD_0": 37,
            "TEXCOORD_1": 38
          },
          "indices": 39,
          "material": 7,
          "mode": 4
        }
      ]
    }
  ],
  "nodes": [
    {
      "children": [
        1
      ],
      "matrix": [
        1.0,
        0.0,
        0.0,
        0.0,
        0.0,
        2.220446049250313e-16,
        -1.0,
        0.0,
        0.0,
        1.0,
        2.220446049250313e-16,
        0.0,
        0.0,
        0.0,
        0.0,
        1.0
      ],
      "name": "Sketchfab_model"
    },
    {
      "children": [
        2
      ],
      "matrix": [
        1.0,
        0.0,
        0.0,
        0.0,
        0.0,
        0.0,
        1.0,
        0.0,
        0.0,
        -1.0,
        0.0,
        0.0,
        0.0,
        0.0,
        0.0,
        1.0
      ],
      "name": "68f89fb5a9174e409f5ef2440809f958.fbx"
    },
    {
      "children": [
        3,
        5,
        7,
        9,
        11,
        13,
        15,
        17
      ],
      "name": "RootNode"
    },
    {
      "children": [
        4
      ],
      "matrix": [
        1.0576820373535156,
        0.0,
        0.0,
        0.0,
        0.0,
        1.5043032504506477e-16,
        -0.6774779558181763,
        0.0,
        0.0,
        0.20453689992427826,
        4.541631513627703e-17,
        0.0,
        -30.972816467285156,
        4.6346893310546875,
        -56.541908264160156,
        1.0
      ],
      "name": "Box002"
    },
    {
      "mesh": 0,
      "name": "Box002_ORANGE_0"
    },
    {
      "children": [
        6
      ],
      "matrix": [
        1.055710671014791,
        -3.6695717206322435e-18,
        0.06454665944712543,
        0.0,
        0.0413441255053807,
        7.521516252253238e-17,
        -0.6762152348962349,
        0.0,
        -7.096299240043286e-19,
        0.20453689992427826,
        2.2708157568138516e-17,
        0.0,
        -30.621047973632813,
        15.540185928344727,
        -57.206546783447266,
        1.0
      ],
      "name": "Box003"
    },
    {
      "mesh": 1,
      "name": "Box003_RED_0"
    },
    {
      "children": [
        8
      ],
      "matrix": [
        1.0553126311314787,
        0.0,
        0.07075692697283538,
        0.0,
        0.04532199333315373,
        0.0,
        -0.6759602780784418,
        0.0,
        0.0,
        0.20453689992427826,
        0.0,
        0.0,
        -30.838489532470703,
        36.700748443603516,
        -57.28911590576172,
        1.0
      ],
      "name": "Box004"
    },
    {
      "mesh": 2,
      "name": "Box004_blue_0"
    },
    {
      "children": [
        10
      ],
      "matrix": [
        1.0553126311314787,
        0.0,
        0.07075692697283538,
        0.0,
        0.04532199333315373,
        0.0,
        -0.6759602780784418,
        0.0,
        0.0,
        0.20453689992427826,
        0.0,
        0.0,
        -30.649368286132813,
        26.373149871826172,
        -57.79412841796875,
        1.0
      ],
      "name": "Box005"
    },
    {
      "mesh": 3,
      "name": "Box005_black_0"
    },
    {
      "children": [
        12
      ],
      "matrix": [
        1.0553126311314787,
        0.0,
        0.07075692697283538,
        0.0,
        0.04532199333315373,
        0.0,
        -0.6759602780784418,
        0.0,
        0.0,
        0.20453689992427826,
        0.0,
        0.0,
        -28.813743591308594,
        41.928524017333984,
        -58.58549499511719,
        1.0
      ],
      "name": "Box006"
    },
    {
      "mesh": 4,
      "name": "Box006_green_0"
    },
    {
      "children": [
        14
      ],
      "matrix": [
        1.0519001225259468,
        -7.339143441264487e-18,
        0.11044195022808125,
        0.0,
        0.07074147431331013,
        7.521516252253238e-17,
        -0.6737744611007115,
        0.0,
        -1.4192598480086573e-18,
        0.20453689992427826,
        2.2708157568138516e-17,
        0.0,
        -28.770931243896484,
        31.600921630859375,
        -58.08888244628906,
        1.0
      ],
      "name": "Box007"
    },
    {
      "mesh": 5,
      "name": "Box007_purple_0"
    },
    {
      "children": [
        16
      ],
      "matrix": [
        1.0569966926831404,
        0.0,
        0.038069460164104944,
        0.0,
        0.024384663008566298,
        7.521516252253238e-17,
        -0.6770389714259686,
        0.0,
        0.0,
        0.20453689992427823,
        2.2708157568138516e-17,
        0.0,
        -29.54583168029785,
        20.767959594726563,
        -57.15018081665039,
        1.0
      ],
      "name": "Box008"
    },
    {
      "mesh": 6,
      "name": "Box008_pink_0"
    },
    {
      "children": [
        18
      ],
      "matrix": [
        1.0576820373535156,
        0.0,
        0.0,
        0.0,
        0.0,
        1.5043032504506477e-16,
        -0.6774779558181763,
        0.0,
        0.0,
        0.20453689992427826,
        4.541631513627703e-17,
        0.0,
        -29.13115692138672,
        9.862462997436523,
        -57.59575271606445,
        1.0
      ],
      "name": "Box009"
    },
    {
      "mesh": 7,
      "name": "Box009_Cyan_0"
    }
  ],
  "samplers": [
    {
      "magFilter": 9729,
      "minFilter": 9987,
      "wrapS": 10497,
      "wrapT": 10497
    }
  ],
  "scene": 0,
  "scenes": [
    {
      "name": "Sketchfab_Scene",
      "nodes": [
        0
      ]
    }
  ],
  "textures": [
    {
      "sampler": 0,
      "source": 0
    },
    {
      "sampler": 0,
      "source": 1
    },
    {
      "sampler": 0,
      "source": 2
    },
    {
      "sampler": 0,
      "source": 3
    },
    {
      "sampler": 0,
      "source": 4
    },
    {
      "sampler": 0,
      "source": 5
    },
    {
      "sampler": 0,
      "source": 6
    },
    {
      "sampler": 0,
      "source": 7
    }
  ]
}
